<svg xmlns="http://www.w3.org/2000/svg" xmlns:xlink="http://www.w3.org/1999/xlink" width="256" zoomAndPan="magnify" viewBox="0 0 192 191.999996" height="256" preserveAspectRatio="xMidYMid meet" version="1.0"><path fill="#ffffff" d="M 186.359375 68.109375 C 185.03125 74.890625 171.894531 75.191406 160.441406 75.339844 C 152.152344 75.433594 138.171875 79.046875 125.453125 82.574219 C 124.25 86.25 122.800781 90.289062 121.777344 92.007812 C 119.699219 95.441406 110.417969 106.773438 107.402344 107.105469 C 105.261719 107.34375 109.902344 97.25 109.601562 90.652344 C 109.542969 89.6875 109.332031 88.449219 109.089844 87.15625 C 108.636719 87.273438 108.214844 87.394531 107.765625 87.484375 C 102.792969 93.574219 97.035156 100.382812 92.035156 102.914062 C 83.925781 107.015625 75.308594 110.179688 75.246094 108.160156 C 75.15625 106.140625 82.058594 100.566406 85.132812 95.742188 C 85.945312 94.476562 86.457031 93 86.878906 91.464844 C 77.476562 93.121094 67.535156 95.503906 59.488281 101.320312 C 46.648438 110.601562 40.320312 123.921875 40.320312 123.921875 C 40.320312 123.921875 49.058594 128.140625 55.296875 133.503906 C 61.566406 138.867188 65.664062 148.390625 64.550781 149.835938 C 63.40625 151.285156 58.734375 148.328125 54.394531 148.390625 C 50.054688 148.449219 36.34375 150.019531 33.027344 147.757812 C 33.027344 147.757812 25.707031 155.984375 19.558594 159.269531 C 13.410156 162.585938 10.15625 172.105469 7.441406 171.082031 C 4.730469 170.058594 4.578125 154.027344 11 143.570312 C 15.789062 135.734375 25.3125 125.578125 25.3125 125.578125 C 25.3125 125.578125 27.421875 76.335938 56.414062 49.996094 C 60.664062 46.652344 59.457031 37.339844 55.449219 32.398438 C 51.441406 27.457031 48.246094 24.804688 48.941406 23.175781 C 49.632812 21.578125 55.539062 19.890625 62.742188 21.21875 C 74.433594 23.386719 82.871094 28.933594 89.832031 31.675781 C 91.640625 32.398438 93.933594 33.121094 96.101562 33.722656 C 110.386719 30.800781 124.097656 30.347656 133.230469 31.675781 C 153.539062 34.597656 165.113281 48.492188 165.984375 56.207031 C 166.046875 56.144531 187.414062 62.714844 186.359375 68.109375 Z M 186.359375 68.109375 " fill-opacity="1" fill-rule="nonzero"/><path fill="#5e5e5e" d="M 155.167969 60.695312 C 155.046875 60.816406 154.804688 60.664062 154.925781 60.515625 C 157.1875 57.441406 160.683594 55.84375 164.449219 55.84375 C 164.539062 55.84375 164.570312 55.996094 164.480469 55.996094 C 160.921875 56.628906 157.851562 58.285156 155.167969 60.695312 Z M 154.023438 58.464844 C 156.582031 57.261719 159.023438 56.085938 161.828125 55.511719 C 161.917969 55.480469 161.886719 55.332031 161.796875 55.363281 C 158.933594 55.390625 155.949219 56.265625 153.933594 58.375 C 153.871094 58.40625 153.933594 58.496094 154.023438 58.464844 Z M 157.789062 70.398438 C 162.371094 70.671875 166.921875 71.121094 171.53125 70.671875 C 173.550781 70.460938 175.570312 70.160156 177.527344 69.644531 C 179.910156 69.011719 182.199219 67.777344 184.640625 67.507812 C 185.304688 67.445312 185.332031 66.390625 184.640625 66.421875 C 182.679688 66.511719 180.964844 67.386719 179.125 68.019531 C 176.773438 68.800781 174.332031 69.285156 171.863281 69.617188 C 167.222656 70.25 162.492188 70.488281 157.820312 70.308594 C 157.757812 70.339844 157.757812 70.398438 157.789062 70.398438 Z M 145.28125 60.125 C 144.410156 61.238281 141.605469 60.96875 140.613281 59.941406 C 139.617188 58.886719 138.773438 56.386719 140.070312 55.089844 C 141.367188 53.792969 143.777344 54.667969 143.777344 54.667969 C 145.613281 55.300781 146.15625 59.007812 145.28125 60.125 Z M 143.171875 56.597656 C 143.234375 55.902344 142.480469 55.480469 141.878906 55.691406 C 141.726562 55.753906 141.605469 55.84375 141.515625 55.964844 C 141.335938 56.054688 141.246094 56.324219 141.273438 56.535156 C 141.273438 56.839844 141.425781 57.140625 141.667969 57.320312 C 142.238281 57.742188 143.082031 57.289062 143.171875 56.597656 Z M 109.089844 85.648438 C 111.621094 82.695312 114.0625 79.652344 116.894531 76.9375 C 119.667969 74.285156 122.953125 72.148438 126.359375 70.398438 C 126.480469 70.339844 126.386719 70.160156 126.269531 70.1875 C 118.34375 71.726562 113.097656 79.257812 109.089844 85.648438 C 109.058594 85.648438 109.058594 85.679688 109.089844 85.648438 Z M 86.941406 90.167969 C 87 87.15625 87 84.082031 89.53125 81.972656 C 91.308594 80.496094 93.570312 79.742188 95.648438 78.835938 C 98.785156 77.480469 104.058594 76.035156 103.875 71.785156 C 103.847656 71.242188 103.003906 71.0625 102.882812 71.636719 C 102.25 74.828125 99.175781 75.855469 96.523438 77.027344 C 94.324219 78.023438 91.972656 78.925781 89.984375 80.34375 C 86.550781 82.753906 86.128906 86.28125 86.851562 90.167969 C 86.878906 90.230469 86.941406 90.230469 86.941406 90.167969 Z M 109.875 86.582031 C 114.847656 85.859375 120.332031 85.015625 124.851562 82.753906 C 125.121094 82.605469 124.910156 82.242188 124.640625 82.273438 C 119.699219 83.085938 114.695312 85.074219 109.875 86.582031 C 109.875 86.550781 109.875 86.582031 109.875 86.582031 Z M 109.875 86.582031 " fill-opacity="1" fill-rule="nonzero"/></svg>